<svg id="svg" xmlns="http://www.w3.org/2000/svg" xmlns:xlink="http://www.w3.org/1999/xlink" width="400" height="379.4117647058823" viewBox="0, 0, 400,379.4117647058823" version="1.1"><g id="svgg"><path id="path0" d="M354.539 8.683 C 351.610 11.919,347.736 13.724,345.930 12.694 C 344.125 11.664,343.680 11.957,344.943 13.344 C 348.479 17.229,303.056 61.560,297.378 59.765 C 294.001 58.697,293.693 59.025,296.301 60.912 C 298.993 62.859,296.861 66.577,288.205 75.029 L 276.455 86.503 263.851 74.134 C 246.160 56.771,250.266 54.098,167.647 136.765 C 91.203 213.253,84.377 218.495,74.315 208.433 C 72.483 206.601,68.909 205.897,66.374 206.870 C 61.228 208.845,60.123 219.226,64.754 222.088 C 66.398 223.105,66.855 225.372,65.770 227.128 C 64.685 228.884,65.110 229.509,66.715 228.517 C 68.319 227.526,74.763 231.968,81.033 238.390 L 92.435 250.066 70.538 272.109 C 44.656 298.166,41.681 299.449,26.051 291.302 C 14.179 285.114,5.882 286.597,5.882 294.909 C 5.882 301.465,77.862 370.794,83.793 369.950 C 92.087 368.770,92.637 360.561,85.105 350.373 C 75.895 337.917,78.760 331.287,104.288 305.969 L 126.443 283.998 141.991 299.352 C 150.542 307.797,159.854 314.706,162.685 314.706 C 169.081 314.706,172.521 306.639,168.038 302.155 C 159.507 293.625,190.428 245.555,200.459 251.754 C 201.904 252.647,202.723 251.626,202.279 249.483 C 201.831 247.327,203.440 246.026,205.882 246.569 C 208.309 247.108,209.283 246.538,208.047 245.302 C 205.215 242.470,220.577 226.116,224.052 228.264 C 225.463 229.136,226.253 228.096,225.808 225.954 C 225.364 223.812,226.753 222.422,228.895 222.867 C 231.037 223.311,232.102 222.561,231.260 221.199 C 230.419 219.838,248.850 199.638,272.218 176.312 C 320.028 128.587,319.593 129.550,301.427 111.722 L 288.148 98.690 330.080 56.684 C 365.202 21.498,371.503 13.873,368.884 9.720 C 364.256 2.383,360.487 2.111,354.539 8.683 M357.141 35.956 C 357.590 38.018,354.239 43.989,349.694 49.223 C 324.367 78.389,332.201 114.706,363.819 114.706 C 397.156 114.706,402.673 72.412,373.031 44.084 C 368.039 39.314,362.914 36.055,361.641 36.841 C 360.368 37.628,358.650 36.907,357.825 35.239 C 356.999 33.571,356.691 33.893,357.141 35.956 M373.546 73.570 C 380.758 90.980,370.553 104.508,356.939 95.587 C 348.558 90.096,348.455 87.513,355.960 70.974 C 362.439 56.695,366.825 57.343,373.546 73.570 M261.616 108.383 C 257.272 109.831,237.969 91.046,240.159 87.503 C 241.091 85.995,247.043 89.828,253.385 96.022 C 259.728 102.215,263.431 107.778,261.616 108.383 M234.259 123.529 C 238.381 128.186,239.746 131.925,237.982 133.725 C 234.270 137.514,213.206 116.571,216.069 111.939 C 218.451 108.085,223.354 111.210,234.259 123.529 M237.721 187.286 C 229.365 195.747,221.099 201.857,219.352 200.863 C 217.606 199.870,217.172 200.154,218.389 201.495 C 219.605 202.837,204.715 220.135,185.300 239.937 C 165.885 259.739,150.000 277.688,150.000 279.824 C 150.000 281.960,137.484 271.243,122.186 256.009 L 94.372 228.311 102.333 223.370 C 106.712 220.653,113.404 215.049,117.206 210.918 L 124.118 203.406 132.952 213.468 C 141.779 223.521,150.000 226.668,150.000 219.993 C 150.000 218.048,145.784 212.107,140.632 206.791 L 131.264 197.126 138.351 189.583 C 143.980 183.591,146.076 182.828,148.539 185.873 C 156.303 195.471,167.515 203.370,170.637 201.440 C 172.927 200.025,170.352 195.524,162.870 187.861 L 151.677 176.398 159.626 168.449 L 167.575 160.500 179.322 171.971 C 191.003 183.377,196.938 184.464,192.543 174.392 C 191.278 171.491,190.453 168.125,190.710 166.912 C 190.966 165.699,189.522 165.037,187.500 165.441 C 185.478 165.846,184.187 164.424,184.632 162.281 C 185.076 160.139,184.234 159.132,182.759 160.043 C 174.559 165.111,174.201 153.398,182.319 145.621 L 191.000 137.304 201.389 148.645 C 209.466 157.463,212.563 159.202,215.305 156.460 C 218.047 153.717,216.407 150.449,207.934 141.772 C 199.366 132.998,197.802 129.845,200.620 127.028 C 203.437 124.210,209.411 128.625,228.558 147.673 L 252.914 171.902 237.721 187.286 M89.695 297.403 C 75.951 311.660,64.706 325.616,64.706 328.416 C 64.706 332.317,62.311 331.186,54.461 323.577 L 44.216 313.647 52.418 309.674 C 56.930 307.489,70.407 295.850,82.368 283.808 C 102.797 263.242,104.435 262.205,109.400 266.698 C 114.410 271.232,113.385 272.829,89.695 297.403 " stroke="none" fill="#000000" fill-rule="evenodd"></path></g></svg>